<?xml version="1.0" standalone="no"?>
<!DOCTYPE svg PUBLIC "-//W3C//DTD SVG 20010904//EN"
 "http://www.w3.org/TR/2001/REC-SVG-20010904/DTD/svg10.dtd">
<svg version="1.0" xmlns="http://www.w3.org/2000/svg"
 width="160.000000pt" height="160.000000pt" viewBox="0 0 160.000000 160.000000"
 preserveAspectRatio="xMidYMid meet">
<metadata>
Created by potrace 1.11, written by Peter Selinger 2001-2013
</metadata>
<g transform="translate(0.000000,160.000000) scale(0.100000,-0.100000)"
fill="#000000" stroke="none">
<path d="M598 635 c-2 -2 -27 -6 -57 -10 -67 -8 -71 -9 -151 -30 -147 -37
-226 -74 -287 -132 -60 -57 -79 -101 -67 -157 7 -30 87 -116 109 -116 7 0 15
-3 17 -7 12 -28 221 -94 368 -117 165 -25 403 -26 530 -2 14 3 43 7 65 11 92
13 235 59 319 102 50 26 115 93 126 131 12 45 -13 108 -64 155 -51 48 -186
111 -287 133 -13 3 -35 7 -49 10 -106 23 -209 32 -377 32 -106 0 -193 -2 -195
-3z"/>
</g>
</svg>
