<?xml version="1.0" standalone="no"?>
<!DOCTYPE svg PUBLIC "-//W3C//DTD SVG 20010904//EN"
 "http://www.w3.org/TR/2001/REC-SVG-20010904/DTD/svg10.dtd">
<svg version="1.0" xmlns="http://www.w3.org/2000/svg"
 width="160.000000pt" height="160.000000pt" viewBox="0 0 160.000000 160.000000"
 preserveAspectRatio="xMidYMid meet">
<metadata>
Created by potrace 1.11, written by Peter Selinger 2001-2013
</metadata>
<g transform="translate(0.000000,160.000000) scale(0.100000,-0.100000)"
fill="#000000" stroke="none">
<path d="M806 1291 c-3 -4 -42 -8 -86 -8 -44 0 -86 -5 -92 -10 -7 -5 -25 -8
-40 -7 -16 2 -28 0 -28 -3 0 -3 16 -25 35 -49 27 -33 95 -161 95 -179 0 -1
-10 -5 -22 -9 -39 -9 -114 -62 -144 -101 -19 -25 -30 -55 -35 -94 -4 -31 -11
-69 -14 -86 -4 -16 -8 -50 -10 -75 -2 -25 -3 -48 -4 -52 -1 -3 -25 -12 -53
-18 -148 -35 -243 -78 -305 -137 -67 -64 -86 -119 -58 -175 18 -36 82 -98 102
-98 6 0 13 -3 15 -7 12 -28 221 -94 368 -117 165 -25 403 -26 530 -2 14 3 43
7 65 11 92 13 235 59 319 102 50 26 115 93 126 131 12 45 -13 108 -64 155 -62
59 -206 119 -341 144 -16 2 -32 7 -34 9 -2 2 -5 29 -7 61 -2 32 -5 65 -7 73
-5 19 -16 76 -21 113 -9 55 -68 115 -151 152 -22 10 -41 19 -42 20 -10 6 54
138 88 182 l41 55 -35 -3 c-22 -2 -40 3 -51 14 -13 12 -34 17 -76 17 -32 0
-61 -4 -64 -9z"/>
</g>
</svg>
